<svg xmlns="http://www.w3.org/2000/svg" width="868" height="506" viewBox="0 0 868 506" version="1.1"><path d="M 18 199.300 C 17.725 199.587, 13.765 200.033, 9.201 200.293 C 1.782 200.715, -3.725 202, 1.886 202 C 10.706 202, 84.904 277.037, 117.578 319 C 173.223 390.466, 243.188 446.573, 309 472.510 C 314.225 474.569, 323 478.164, 328.500 480.498 C 527.910 565.141, 791.270 444.507, 849.361 241.915 C 855.599 220.162, 860.769 192.983, 855.613 209.046 C 838.852 261.273, 784.543 314.072, 718.500 342.349 C 695.074 352.379, 675.412 358.395, 638.129 366.941 C 554.721 386.059, 442.227 359.649, 337.869 296.450 C 253.774 245.522, 166.620 212.647, 86 201.443 C 74.915 199.902, 19.109 198.144, 18 199.300" stroke="none" fill="#2585c1" fill-rule="evenodd"/><path d="M 795.980 31.338 C 732.443 92.897, 659.845 97.367, 500.599 49.522 C 385.341 14.894, 319.274 27.322, 214.623 103.318 C 186.149 123.995, 162.152 138.703, 119.027 161.908 C 106.666 168.558, 96.919 174, 97.366 174 C 97.813 174, 130.426 159.093, 169.839 140.873 C 312.174 75.075, 317.640 74.721, 525.513 117.856 C 650.008 143.689, 764.870 105.378, 806.437 24.157 C 809.153 18.848, 808.182 19.516, 795.980 31.338" stroke="none" fill="#cdd1da" fill-rule="evenodd"/><path d="M 833.730 14.575 C 835.161 64.004, 794.720 111.937, 734 132.783 C 653.024 160.582, 578.102 164.774, 506.500 145.510 C 446.902 129.476, 359.988 125.956, 302 137.228 C 290.500 139.463, 290.500 139.463, 304 140.119 C 352.491 142.478, 399.110 161.441, 440.045 195.458 C 493.345 239.751, 549.395 253.139, 630.500 240.950 C 786.377 217.525, 877.052 124.872, 843.473 23.332 C 835.797 0.120, 833.245 -2.174, 833.730 14.575" stroke="none" fill="#babfc5" fill-rule="evenodd"/><path d="M 862.517 107.262 C 817.988 210.632, 750.314 267.975, 660.441 278.488 C 600.754 285.470, 524.943 268.761, 475.076 237.634 C 356.484 163.608, 244.065 138.905, 162.188 168.881 C 142.343 176.146, 141.469 177.488, 155.714 178.822 C 201.144 183.077, 240.496 201.704, 356.500 273.860 C 458.759 337.467, 511.193 350.935, 596 335.376 C 727.115 311.322, 827.549 226.535, 864.517 108.694 C 869.260 93.576, 868.613 93.113, 862.517 107.262" stroke="none" fill="#5a5f63" fill-rule="evenodd"/></svg>